<svg id="Capa_1" enable-background="new 0 0 512 512" height="512" viewBox="0 0 512 512" width="512" xmlns="http://www.w3.org/2000/svg"><g><g><g><path d="m256 7.5c-137.247 0-248.5 111.253-248.5 248.5s111.253 248.5 248.5 248.5 248.5-111.253 248.5-248.5-111.253-248.5-248.5-248.5zm0 399.519c-83.409 0-151.019-67.61-151.019-151.019s67.61-151.019 151.019-151.019 151.019 67.61 151.019 151.019-67.61 151.019-151.019 151.019z" fill="#27d1b3"/><path d="m7.5 256c0 137.247 111.253 248.5 248.5 248.5v-97.481c-83.409 0-151.019-67.61-151.019-151.019z" fill="#31a7fb"/><path d="m504.5 256c0-137.247-111.253-248.5-248.5-248.5v97.481c83.409 0 151.019 67.61 151.019 151.019z" fill="#fc9744"/><path d="m504.5 256h-40.37c0-123.51-90.08-225.96-208.13-245.24v-3.26c137.25 0 248.5 111.25 248.5 248.5z" fill="#fb8627"/><path d="m452.85 131.47c11.92 14.19 11.21 35.45-2.13 48.79-6.83 6.82-15.91 10.58-25.56 10.58-6.37 0-12.49-1.64-17.87-4.72l-11.83 11.83c-7.73-18.55-19.05-35.23-33.1-49.16l69.17-68.7c12.2 12.18 23.14 25.61 32.6 40.1z" fill="#fb8627"/><path d="m407.019 256c0 83.409-67.61 151.019-151.019 151.019v97.481c137.247 0 248.5-111.253 248.5-248.5z" fill="#fb3a82"/><path d="m504.5 256c0 137.25-111.25 248.5-248.5 248.5v-3.26c118.05-19.28 208.13-121.73 208.13-245.24z" fill="#fb1466"/></g><g><path d="m359.832 98.936-129.063 129.063c-7.619 7.619-7.619 19.971 0 27.589l-20.463 20.463c-6.938 6.938-7.452 18.242-.765 25.422 7.02 7.538 18.827 7.696 26.048.475l20.77-20.77c7.619 7.619 19.971 7.619 27.589 0l129.063-129.063z" fill="#cbe5e7"/><path d="m389.646 175.48 23.365-23.365-53.179-53.179-23.365 23.365c17.726 17.727 35.453 35.453 53.179 53.179z" fill="#a9d3d8"/><path d="m413.01 152.12-129.06 129.06c-3.81 3.81-8.8 5.72-13.79 5.72-5 0-9.99-1.91-13.8-5.72l-20.77 20.77c-7.22 7.22-19.03 7.06-26.05-.48-3.1-3.32-4.65-7.53-4.73-11.77 4.78.12 9.59-1.64 13.24-5.29l16.761-16.761c2.085-2.085 5.322-2.521 7.857-1.015 3.056 1.816 6.502 2.725 9.952 2.725 4.99 0 9.98-1.91 13.79-5.72l129.06-129.06z" fill="#a9d3d8"/><path d="m436.574 143.284c-6.576-6.576-6.576-17.238 0-23.813l27.018-27.018c12.177-12.177 12.177-31.92 0-44.097-12.177-12.177-31.92-12.177-44.097 0l-27.018 27.018c-6.576 6.576-17.237 6.576-23.813 0-6.305-6.305-16.527-6.305-22.832 0-6.305 6.305-6.305 16.527 0 22.832l67.91 67.91c6.305 6.305 16.527 6.305 22.832 0 6.304-6.305 6.304-16.527 0-22.832z" fill="#3f5959"/><path d="m436.57 119.47c-6.57 6.58-6.57 17.24 0 23.81 3.15 3.16 4.73 7.29 4.73 11.42s-1.58 8.26-4.73 11.42c-6.3 6.3-16.52 6.3-22.83 0l-20.35-20.35c6.31 6.3 16.53 6.3 22.83 0 3.16-3.15 4.73-7.29 4.73-11.42s-1.57-8.27-4.73-11.42c-6.57-6.57-6.57-17.23 0-23.81l27.02-27.02c8.51-8.5 11.07-20.7 7.69-31.43 4.63 1.45 8.99 4.02 12.66 7.69 12.18 12.17 12.18 31.92 0 44.09z" fill="#384848"/></g></g><path d="m462.282 104.369 6.613-6.613c7.306-7.306 11.33-17.02 11.33-27.352 0-10.333-4.023-20.046-11.33-27.352-7.306-7.306-17.019-11.33-27.352-11.33-10.332 0-20.045 4.023-27.352 11.33l-6.621 6.621c-44.147-32.512-96.444-49.673-151.57-49.673-62.911 0-123.4 23.048-170.324 64.9-3.091 2.757-3.362 7.498-.605 10.589 1.481 1.661 3.536 2.508 5.6 2.508 1.776 0 3.56-.627 4.99-1.903 42.304-37.731 96.323-59.213 152.84-60.964v82.532c-81.452 3.813-147.024 69.385-150.837 150.837h-82.533c1.712-54.968 22.179-107.828 58.097-149.581 2.701-3.14 2.346-7.875-.794-10.577-3.141-2.702-7.876-2.346-10.577.794-39.889 46.371-61.857 105.631-61.857 166.865 0 68.382 26.628 132.669 74.979 181.021 48.352 48.351 112.639 74.979 181.021 74.979s132.669-26.628 181.021-74.979c48.351-48.352 74.979-112.639 74.979-181.021 0-55.155-17.176-107.472-49.718-151.631zm34.593 144.131h-82.554c-1.129-23.861-7.623-47.199-18.982-68.106l11.037-11.037 2.062 2.062c4.609 4.609 10.664 6.914 16.719 6.914s12.11-2.305 16.72-6.914c9.218-9.219 9.218-24.22-.001-33.438-3.641-3.641-3.641-9.566 0-13.207l9.664-9.664c28.3 39.157 43.876 84.992 45.335 133.39zm-55.332-201.777c6.326 0 12.272 2.463 16.745 6.936s6.936 10.419 6.936 16.745c0 6.325-2.463 12.272-6.936 16.745l-27.019 27.018c-9.489 9.49-9.489 24.931 0 34.42 3.371 3.371 3.371 8.855 0 12.225-3.371 3.371-8.855 3.371-12.226.001l-23.093-23.093c-2.929-2.93-7.678-2.929-10.606 0-2.929 2.929-2.929 7.678 0 10.606l10.424 10.424-117.123 117.125c-2.268 2.268-5.284 3.517-8.491 3.517s-6.223-1.249-8.491-3.517c-1.406-1.406-3.314-2.197-5.303-2.197s-3.897.79-5.303 2.197l-20.77 20.77c-2.051 2.051-4.764 3.169-7.682 3.101-2.9-.051-5.59-1.253-7.575-3.384-3.836-4.119-3.576-10.852.58-15.007l20.463-20.463c2.929-2.929 2.929-7.678 0-10.606-4.682-4.682-4.682-12.301 0-16.983l117.125-117.125 8.821 8.821c2.929 2.929 7.678 2.929 10.606 0 2.929-2.929 2.929-7.678 0-10.606l-21.489-21.489c-3.371-3.371-3.371-8.855 0-12.225 3.371-3.371 8.856-3.371 12.225 0 4.597 4.597 10.709 7.129 17.21 7.129s12.613-2.532 17.21-7.129l27.018-27.018c4.472-4.474 10.419-6.938 16.744-6.938zm-54.369 23.347c-1.764 1.764-4.109 2.735-6.604 2.735s-4.839-.971-6.604-2.736c-9.218-9.217-24.218-9.218-33.439 0-9.218 9.219-9.218 24.219 0 33.438l2.062 2.062-11.043 11.043c-20.902-11.342-44.2-17.808-68.048-18.935v-82.552c48.37 1.458 94.184 17.018 133.329 45.29zm-372.047 193.43h82.536c3.813 81.452 69.385 147.024 150.837 150.837v82.536c-61.564-1.87-119.169-26.713-162.914-70.459s-68.589-101.35-70.459-162.914zm411.287 162.914c-43.746 43.746-101.35 68.589-162.914 70.459v-82.537c34.278-1.632 67.32-14.398 93.76-36.373 3.186-2.648 3.622-7.376.974-10.562s-7.377-3.622-10.562-.974c-25.676 21.34-58.233 33.093-91.672 33.093-79.137 0-143.519-64.382-143.519-143.519s64.382-143.52 143.519-143.52c22.448 0 44.541 5.255 64.43 15.25l-94.965 94.964c-8.691 8.691-10.209 21.881-4.554 32.144l-15.909 15.909c-9.966 9.966-10.384 25.708-.95 35.837 4.785 5.137 11.278 8.034 18.285 8.159.157.002.313.004.47.004 6.833 0 13.24-2.651 18.084-7.497l16.208-16.208c3.951 2.187 8.413 3.349 13.053 3.349 7.214 0 13.997-2.81 19.098-7.911l94.976-94.976c10.014 19.902 15.292 42.038 15.292 64.494 0 32.143-10.39 62.529-30.047 87.874-2.539 3.273-1.943 7.984 1.33 10.523 1.368 1.061 2.985 1.574 4.591 1.574 2.239 0 4.454-.998 5.932-2.904 20.18-26.019 31.513-56.846 33.016-89.567h82.532c-1.869 61.565-26.712 119.17-70.458 162.915z"/></g></svg>